<svg width="20" height="20" viewBox="0 0 20 20" fill="none" xmlns="http://www.w3.org/2000/svg">
<path d="M6.77818 6.46429C6.77818 6.72003 6.67659 6.9653 6.49575 7.14614C6.31491 7.32698 6.06964 7.42857 5.8139 7.42857C5.55815 7.42857 5.31288 7.32698 5.13204 7.14614C4.9512 6.9653 4.84961 6.72003 4.84961 6.46429C4.84961 6.20854 4.9512 5.96327 5.13204 5.78243C5.31288 5.60159 5.55815 5.5 5.8139 5.5C6.06964 5.5 6.31491 5.60159 6.49575 5.78243C6.67659 5.96327 6.77818 6.20854 6.77818 6.46429Z" fill="#B2B2B2"/>
<path d="M5.8139 11.287C6.06964 11.287 6.31491 11.1854 6.49575 11.0045C6.67659 10.8237 6.77818 10.5784 6.77818 10.3227C6.77818 10.0669 6.67659 9.82167 6.49575 9.64083C6.31491 9.45999 6.06964 9.3584 5.8139 9.3584C5.55815 9.3584 5.31288 9.45999 5.13204 9.64083C4.9512 9.82167 4.84961 10.0669 4.84961 10.3227C4.84961 10.5784 4.9512 10.8237 5.13204 11.0045C5.31288 11.1854 5.55815 11.287 5.8139 11.287Z" fill="#B2B2B2"/>
<path d="M6.77818 14.1811C6.77818 14.4368 6.67659 14.6821 6.49575 14.8629C6.31491 15.0438 6.06964 15.1454 5.8139 15.1454C5.55815 15.1454 5.31288 15.0438 5.13204 14.8629C4.9512 14.6821 4.84961 14.4368 4.84961 14.1811C4.84961 13.9253 4.9512 13.6801 5.13204 13.4992C5.31288 13.3184 5.55815 13.2168 5.8139 13.2168C6.06964 13.2168 6.31491 13.3184 6.49575 13.4992C6.67659 13.6801 6.77818 13.9253 6.77818 14.1811Z" fill="#B2B2B2"/>
<path d="M9.35965 6.1416C9.18916 6.1416 9.02564 6.20933 8.90508 6.32989C8.78453 6.45045 8.7168 6.61396 8.7168 6.78446C8.7168 6.95496 8.78453 7.11847 8.90508 7.23903C9.02564 7.35959 9.18916 7.42732 9.35965 7.42732H14.5025C14.673 7.42732 14.8365 7.35959 14.9571 7.23903C15.0776 7.11847 15.1454 6.95496 15.1454 6.78446C15.1454 6.61396 15.0776 6.45045 14.9571 6.32989C14.8365 6.20933 14.673 6.1416 14.5025 6.1416H9.35965Z" fill="#B2B2B2"/>
<path d="M8.7168 10.6429C8.7168 10.4724 8.78453 10.3088 8.90508 10.1883C9.02564 10.0677 9.18916 10 9.35965 10H14.5025C14.673 10 14.8365 10.0677 14.9571 10.1883C15.0776 10.3088 15.1454 10.4724 15.1454 10.6429C15.1454 10.8134 15.0776 10.9769 14.9571 11.0974C14.8365 11.218 14.673 11.2857 14.5025 11.2857H9.35965C9.18916 11.2857 9.02564 11.218 8.90508 11.0974C8.78453 10.9769 8.7168 10.8134 8.7168 10.6429Z" fill="#B2B2B2"/>
<path d="M9.35965 13.8584C9.18916 13.8584 9.02564 13.9261 8.90508 14.0467C8.78453 14.1672 8.7168 14.3308 8.7168 14.5013C8.7168 14.6718 8.78453 14.8353 8.90508 14.9558C9.02564 15.0764 9.18916 15.1441 9.35965 15.1441H14.5025C14.673 15.1441 14.8365 15.0764 14.9571 14.9558C15.0776 14.8353 15.1454 14.6718 15.1454 14.5013C15.1454 14.3308 15.0776 14.1672 14.9571 14.0467C14.8365 13.9261 14.673 13.8584 14.5025 13.8584H9.35965Z" fill="#B2B2B2"/>
<path d="M1 3.57143C1 2.88944 1.27092 2.23539 1.75315 1.75315C2.23539 1.27092 2.88944 1 3.57143 1H16.4286C17.1106 1 17.7646 1.27092 18.2468 1.75315C18.7291 2.23539 19 2.88944 19 3.57143V16.4286C19 17.1106 18.7291 17.7646 18.2468 18.2468C17.7646 18.7291 17.1106 19 16.4286 19H3.57143C2.88944 19 2.23539 18.7291 1.75315 18.2468C1.27092 17.7646 1 17.1106 1 16.4286V3.57143ZM3.57143 2.28571C3.23044 2.28571 2.90341 2.42117 2.66229 2.66229C2.42117 2.90341 2.28571 3.23044 2.28571 3.57143V16.4286C2.28571 16.7696 2.42117 17.0966 2.66229 17.3377C2.90341 17.5788 3.23044 17.7143 3.57143 17.7143H16.4286C16.7696 17.7143 17.0966 17.5788 17.3377 17.3377C17.5788 17.0966 17.7143 16.7696 17.7143 16.4286V3.57143C17.7143 3.23044 17.5788 2.90341 17.3377 2.66229C17.0966 2.42117 16.7696 2.28571 16.4286 2.28571H3.57143Z" fill="#B2B2B2"/>
</svg>
