<svg width="30" height="30" viewBox="0 0 30 30" fill="none" xmlns="http://www.w3.org/2000/svg">
<path d="M27.0014 20.0492L21.2591 17.5882C21.0138 17.4837 20.7412 17.4616 20.4823 17.5254C20.2234 17.5892 19.9922 17.7354 19.8235 17.942L17.2805 21.0489C13.2895 19.1672 10.0776 15.9554 8.19592 11.9643L11.3029 9.42133C11.5099 9.253 11.6564 9.02182 11.7202 8.76279C11.784 8.50376 11.7617 8.23098 11.6567 7.98576L9.19569 2.24347C9.08039 1.97912 8.87646 1.76329 8.61908 1.6332C8.36169 1.5031 8.06698 1.46689 7.78575 1.53081L2.45363 2.7613C2.1825 2.82391 1.94059 2.97657 1.76739 3.19437C1.5942 3.41217 1.49994 3.68225 1.5 3.96052C1.5 17.1114 12.1591 27.75 25.2895 27.75C25.5678 27.7502 25.838 27.656 26.0559 27.4828C26.2738 27.3096 26.4266 27.0676 26.4892 26.7964L27.7197 21.4642C27.7832 21.1816 27.7462 20.8858 27.6151 20.6275C27.484 20.3692 27.267 20.1647 27.0014 20.0492Z" fill="#1F1F1F"/>
</svg>
