<svg width="20" height="20" viewBox="0 0 20 20" fill="none" xmlns="http://www.w3.org/2000/svg">
<path d="M18.0009 13.3661L14.1727 11.7255C14.0092 11.6558 13.8274 11.6411 13.6548 11.6836C13.4822 11.7262 13.3281 11.8236 13.2157 11.9613L11.5203 14.0326C8.85967 12.7781 6.71843 10.6369 5.46394 7.97623L7.53527 6.28089C7.67325 6.16866 7.77091 6.01454 7.81346 5.84186C7.85602 5.66917 7.84115 5.48732 7.77111 5.32384L6.13046 1.49565C6.05359 1.31942 5.91764 1.17553 5.74605 1.0888C5.57446 1.00207 5.37799 0.977926 5.1905 1.02054L1.63575 1.84087C1.455 1.88261 1.29373 1.98438 1.17826 2.12958C1.0628 2.27478 0.999958 2.45483 1 2.64034C1 11.4076 8.10608 18.5 16.8596 18.5C17.0452 18.5001 17.2253 18.4373 17.3706 18.3218C17.5159 18.2064 17.6177 18.0451 17.6595 17.8642L18.4798 14.3095C18.5221 14.1211 18.4975 13.9238 18.4101 13.7517C18.3227 13.5795 18.178 13.4431 18.0009 13.3661Z" fill="#474B4F"/>
</svg>
