<svg width="30" height="30" viewBox="0 0 30 30" fill="none" xmlns="http://www.w3.org/2000/svg">
<path d="M24.1934 5.68945C21.7383 3.22852 18.4688 1.875 14.9941 1.875C7.82227 1.875 1.98633 7.71094 1.98633 14.8828C1.98633 17.1738 2.58398 19.4121 3.7207 21.3867L1.875 28.125L8.77148 26.3145C10.6699 27.3516 12.8086 27.8965 14.9883 27.8965H14.9941C22.1602 27.8965 28.125 22.0605 28.125 14.8887C28.125 11.4141 26.6484 8.15039 24.1934 5.68945ZM14.9941 25.7051C13.0488 25.7051 11.1445 25.1836 9.48633 24.1992L9.09375 23.9648L5.00391 25.0371L6.09375 21.0469L5.83594 20.6367C4.75195 18.9141 4.18359 16.9277 4.18359 14.8828C4.18359 8.92383 9.03516 4.07227 15 4.07227C17.8887 4.07227 20.6016 5.19727 22.6406 7.24219C24.6797 9.28711 25.9336 12 25.9277 14.8887C25.9277 20.8535 20.9531 25.7051 14.9941 25.7051ZM20.9238 17.6074C20.6016 17.4434 19.002 16.6582 18.7031 16.5527C18.4043 16.4414 18.1875 16.3887 17.9707 16.7168C17.7539 17.0449 17.1328 17.7715 16.9395 17.9941C16.752 18.2109 16.5586 18.2402 16.2363 18.0762C14.3262 17.1211 13.0723 16.3711 11.8125 14.209C11.4785 13.6348 12.1465 13.6758 12.7676 12.4336C12.873 12.2168 12.8203 12.0293 12.7383 11.8652C12.6562 11.7012 12.0059 10.1016 11.7363 9.45117C11.4727 8.81836 11.2031 8.90625 11.0039 8.89453C10.8164 8.88281 10.5996 8.88281 10.3828 8.88281C10.166 8.88281 9.81445 8.96484 9.51562 9.28711C9.2168 9.61523 8.37891 10.4004 8.37891 12C8.37891 13.5996 9.54492 15.1465 9.70313 15.3633C9.86719 15.5801 11.9941 18.8613 15.2578 20.2734C17.3203 21.1641 18.1289 21.2402 19.1602 21.0879C19.7871 20.9941 21.082 20.3027 21.3516 19.541C21.6211 18.7793 21.6211 18.1289 21.5391 17.9941C21.4629 17.8477 21.2461 17.7656 20.9238 17.6074Z" fill="#1F1F1F"/>
</svg>
