<svg width="20" height="20" viewBox="0 0 20 20" fill="none" xmlns="http://www.w3.org/2000/svg">
<path d="M19.0853 5.41959C18.8672 4.59841 18.2246 3.95167 17.4088 3.73219C15.9299 3.33337 10 3.33337 10 3.33337C10 3.33337 4.07019 3.33337 2.59133 3.73219C1.77546 3.95171 1.13289 4.59841 0.914805 5.41959C0.518555 6.90803 0.518555 10.0135 0.518555 10.0135C0.518555 10.0135 0.518555 13.119 0.914805 14.6074C1.13289 15.4286 1.77546 16.0484 2.59133 16.2679C4.07019 16.6667 10 16.6667 10 16.6667C10 16.6667 15.9299 16.6667 17.4088 16.2679C18.2246 16.0484 18.8672 15.4286 19.0853 14.6074C19.4815 13.119 19.4815 10.0135 19.4815 10.0135C19.4815 10.0135 19.4815 6.90803 19.0853 5.41959ZM8.06064 12.8331V7.19396L13.0169 10.0136L8.06064 12.8331Z" fill="white"/>
</svg>
